<?xml version="1.0" standalone="no"?>
<!DOCTYPE svg PUBLIC "-//W3C//DTD SVG 20010904//EN"
 "http://www.w3.org/TR/2001/REC-SVG-20010904/DTD/svg10.dtd">
<svg version="1.0" xmlns="http://www.w3.org/2000/svg"
 width="638.000000pt" height="775.000000pt" viewBox="0 0 638.000000 775.000000"
 preserveAspectRatio="xMidYMid meet">
<metadata>
Created by potrace 1.15, written by Peter Selinger 2001-2017
</metadata>
<g transform="translate(0.000000,775.000000) scale(0.100000,-0.100000)"
fill="#000000" stroke="none">
<path d="M5445 7319 c-218 -28 -398 -119 -562 -281 -152 -150 -257 -349 -309
-588 -17 -78 -19 -136 -19 -680 l0 -595 33 -67 c43 -89 110 -148 234 -207 l97
-46 3 -945 3 -945 24 -60 c34 -84 124 -174 206 -204 50 -19 76 -22 155 -19 79
2 104 8 152 31 75 37 134 98 172 177 l31 65 0 2185 0 2185 -75 1 c-41 1 -106
-2 -145 -7z m33 -2273 l-3 -2084 -30 -43 c-78 -110 -222 -110 -300 0 l-30 43
-3 1012 -2 1013 -73 28 c-119 46 -226 105 -256 142 -16 20 -34 55 -40 79 -15
58 -15 948 0 1069 38 309 206 588 439 725 70 42 228 99 273 100 l27 0 -2
-2084z"/>
<path d="M2640 7252 c-20 -16 -26 -44 -56 -268 -19 -137 -50 -360 -69 -495
-51 -358 -45 -496 29 -664 63 -140 197 -292 324 -365 l61 -35 3 -1240 c3
-1162 4 -1243 21 -1285 119 -300 549 -319 686 -30 l26 55 5 1247 5 1246 80 53
c248 162 391 442 372 732 -8 115 -133 962 -147 986 -12 24 -32 31 -84 31 -53
0 -86 -30 -86 -80 0 -19 30 -241 66 -495 73 -508 74 -543 30 -674 -35 -103
-80 -175 -164 -258 -57 -57 -91 -82 -162 -115 l-89 -43 -3 -1280 c-3 -1272 -3
-1280 -24 -1319 -11 -22 -37 -54 -58 -70 -34 -28 -45 -31 -106 -31 -61 0 -72
3 -106 30 -20 17 -45 46 -55 65 -18 33 -19 87 -19 1316 l0 1281 -97 48 c-205
101 -344 304 -359 522 -4 64 8 169 65 567 39 270 71 500 71 511 0 12 -11 34
-25 49 -30 32 -100 37 -135 8z"/>
<path d="M3046 7248 l-28 -24 1 -500 1 -499 26 -22 c36 -32 97 -31 129 2 l25
24 0 494 c0 563 4 534 -81 544 -38 4 -50 1 -73 -19z"/>
<path d="M3429 7240 l-30 -29 3 -491 3 -492 28 -24 c39 -33 99 -33 132 1 l25
24 0 490 c0 269 -3 497 -6 506 -9 22 -57 45 -94 45 -22 0 -41 -9 -61 -30z"/>
<path d="M1170 7224 c-30 -8 -88 -30 -128 -50 -224 -109 -461 -492 -517 -834
-20 -129 -20 -359 1 -453 48 -208 171 -392 346 -514 l78 -54 2 -1197 3 -1197
27 -57 c57 -122 171 -198 309 -206 165 -10 298 68 366 213 l28 60 3 1195 2
1195 38 22 c64 36 151 112 208 182 62 73 145 234 170 326 26 92 30 349 9 478
-60 365 -298 743 -538 852 -119 55 -287 71 -407 39z m317 -204 c149 -69 329
-314 406 -551 64 -196 74 -430 24 -582 -53 -165 -171 -309 -325 -400 l-82 -48
-2 -1227 -3 -1227 -27 -47 c-81 -137 -261 -124 -323 24 -13 33 -15 179 -15
1256 l0 1219 -91 53 c-250 148 -373 397 -349 702 14 169 52 303 128 452 111
217 265 369 408 406 71 17 178 5 251 -30z"/>
<path d="M4450 1780 c-24 -24 -26 -67 -4 -98 18 -27 84 -31 108 -6 25 24 21
90 -6 108 -31 22 -74 20 -98 -4z"/>
<path d="M3054 1776 c-52 -23 -74 -61 -74 -126 0 -68 21 -99 122 -185 78 -66
87 -83 58 -107 -30 -25 -37 -23 -78 19 l-37 36 -45 -25 c-25 -14 -46 -32 -48
-41 -4 -19 52 -83 89 -103 37 -19 133 -18 175 2 54 26 77 67 77 134 0 74 -20
106 -118 189 -76 65 -90 93 -50 99 12 2 31 -8 45 -23 31 -33 40 -32 78 8 38
39 40 56 10 84 -57 52 -139 67 -204 39z"/>
<path d="M980 1511 l0 -271 60 0 60 0 0 103 0 102 53 -100 52 -100 68 -3 c38
-2 67 1 67 7 0 5 -25 55 -55 112 -30 56 -55 106 -55 110 0 5 9 13 21 19 57 31
79 151 39 217 -31 51 -70 65 -197 71 l-113 5 0 -272z"/>
<path d="M1490 1634 c-78 -34 -120 -101 -120 -191 1 -170 155 -263 308 -187
73 36 107 95 107 184 -1 95 -43 162 -124 196 -43 18 -127 17 -171 -2z m151
-123 c78 -78 -21 -217 -110 -155 -13 9 -29 32 -37 50 -12 29 -12 39 0 68 29
70 97 87 147 37z"/>
<path d="M1945 1631 c-75 -35 -115 -102 -115 -193 1 -152 130 -242 282 -196
103 31 164 160 126 269 -40 116 -178 173 -293 120z m156 -120 c67 -67 5 -188
-85 -165 -38 9 -66 50 -66 96 0 51 43 98 90 98 22 0 41 -9 61 -29z"/>
<path d="M2453 1636 c-18 -8 -33 -11 -33 -6 0 6 -25 10 -55 10 l-55 0 0 -200
0 -200 54 0 54 0 3 119 c4 132 20 173 72 179 46 6 57 -26 57 -170 l0 -128 60
0 60 0 0 115 c0 84 4 124 15 145 15 30 53 47 79 37 24 -9 36 -75 36 -189 l0
-108 55 0 55 0 0 160 c0 180 -7 208 -62 236 -43 22 -134 15 -174 -13 l-31 -22
-21 21 c-27 28 -122 35 -169 14z"/>
<path d="M3455 1632 c-144 -67 -154 -295 -17 -375 42 -25 147 -34 196 -17 42
14 106 65 106 85 0 7 -21 21 -46 31 -44 17 -48 17 -76 1 -46 -26 -100 -22
-133 11 l-27 27 152 3 152 3 -4 63 c-4 73 -29 118 -86 157 -48 33 -159 38
-217 11z"/>
<path d="M3927 1644 c-4 -4 -34 -6 -67 -5 l-60 2 0 -200 0 -201 54 0 54 0 4
128 c5 143 14 172 57 172 23 0 30 6 37 32 9 31 13 25 88 -150 l78 -182 42 0
41 0 83 193 c45 105 82 195 82 200 0 4 -27 7 -61 7 l-60 0 -20 -48 c-11 -26
-30 -70 -42 -96 l-23 -50 -39 90 c-21 49 -41 92 -44 95 -9 10 -195 22 -204 13z"/>
<path d="M4745 1638 c-156 -55 -185 -275 -48 -372 74 -51 215 -46 283 10 39
33 38 57 -4 83 -41 26 -51 26 -83 1 -31 -24 -73 -26 -113 -5 -36 19 -50 43
-50 89 0 80 89 120 167 76 l40 -22 41 21 c23 12 42 27 42 34 0 20 -50 64 -92
81 -42 18 -138 20 -183 4z"/>
<path d="M5185 1635 c-76 -41 -115 -107 -115 -195 0 -138 95 -219 242 -208 44
3 69 12 101 34 58 41 58 71 -1 93 -39 14 -45 14 -71 -2 -45 -26 -97 -22 -129
11 l-27 27 153 3 152 3 0 47 c0 60 -33 126 -82 166 -33 26 -47 30 -115 33 -59
3 -85 0 -108 -12z"/>
<path d="M4440 1440 l0 -200 60 0 60 0 0 200 0 200 -60 0 -60 0 0 -200z"/>
</g>
</svg>
